<!-- Generated by IcoMoon.io -->
<svg version="1.1" xmlns="http://www.w3.org/2000/svg" width="32" height="32" viewBox="0 0 32 32">
<title>grid</title>
<path d="M3.628 3.428c-0.276 0.14-0.268-0.024-0.255 5.304l0.013 4.972 0.243 0.243h10.075l0.243-0.243v-10.075l-0.243-0.243-4.972-0.013c-3.921-0.009-5 0.001-5.104 0.055zM18.295 3.428c-0.276 0.14-0.268-0.024-0.255 5.304l0.013 4.972 0.243 0.243h10.075l0.243-0.243v-10.075l-0.243-0.243-4.972-0.013c-3.921-0.009-5 0.001-5.104 0.055zM12.667 8.667v4h-8l-0.013-3.947c-0.008-2.171-0.003-3.977 0.011-4.013 0.021-0.053 0.852-0.064 4.015-0.053l3.988 0.013v4zM27.333 8.667v4h-8l-0.013-3.947c-0.008-2.171-0.003-3.977 0.011-4.013 0.021-0.053 0.852-0.064 4.015-0.053l3.988 0.013v4zM3.628 18.095c-0.276 0.14-0.268-0.024-0.255 5.304l0.013 4.972 0.243 0.243h10.075l0.243-0.243v-10.075l-0.243-0.243-4.972-0.013c-3.921-0.009-5 0.001-5.104 0.055zM18.295 18.095c-0.276 0.14-0.268-0.024-0.255 5.304l0.013 4.972 0.243 0.243h10.075l0.243-0.243v-10.075l-0.243-0.243-4.972-0.013c-3.921-0.009-5 0.001-5.104 0.055zM12.667 23.333v4h-8l-0.013-3.947c-0.008-2.171-0.003-3.977 0.011-4.013 0.021-0.053 0.852-0.064 4.015-0.053l3.988 0.013v4zM27.333 23.333v4h-8l-0.013-3.947c-0.008-2.171-0.003-3.977 0.011-4.013 0.021-0.053 0.852-0.064 4.015-0.053l3.988 0.013v4z"></path>
</svg>
